<svg xmlns="http://www.w3.org/2000/svg" viewBox="0 0 240 160" fill="none" aria-hidden="true">
  <!-- Main twig -->
  <path d="M5 80 Q 60 60 120 50 Q 180 42 230 30" stroke="#2A2A2A" stroke-width="2" stroke-linecap="round" fill="none"/>
  <!-- Sub-twigs -->
  <path d="M60 65 Q 70 50 78 40" stroke="#2A2A2A" stroke-width="1.5" stroke-linecap="round" fill="none"/>
  <path d="M120 50 Q 128 35 132 25" stroke="#2A2A2A" stroke-width="1.5" stroke-linecap="round" fill="none"/>
  <path d="M180 40 Q 190 55 198 65" stroke="#2A2A2A" stroke-width="1.5" stroke-linecap="round" fill="none"/>
  <path d="M90 55 Q 95 70 100 80" stroke="#2A2A2A" stroke-width="1.5" stroke-linecap="round" fill="none"/>
  <!-- Leaves -->
  <ellipse cx="78" cy="38" rx="10" ry="6" fill="#F2891C" transform="rotate(-30 78 38)"/>
  <ellipse cx="132" cy="22" rx="10" ry="6" fill="#6722BC" transform="rotate(-20 132 22)"/>
  <ellipse cx="200" cy="68" rx="10" ry="6" fill="#F2891C" transform="rotate(40 200 68)"/>
  <ellipse cx="232" cy="28" rx="10" ry="6" fill="#6722BC" transform="rotate(20 232 28)"/>
  <ellipse cx="100" cy="83" rx="9" ry="5" fill="#6722BC" transform="rotate(50 100 83)"/>
  <ellipse cx="40" cy="76" rx="8" ry="5" fill="#F2891C" transform="rotate(-15 40 76)"/>
  <ellipse cx="160" cy="46" rx="8" ry="5" fill="#F2891C" transform="rotate(-10 160 46)"/>
</svg>
